<svg width="47" height="47" viewBox="0 0 47 47" fill="none" xmlns="http://www.w3.org/2000/svg">
<path d="M23.5 13.7084C22.4229 13.7084 21.5417 14.5897 21.5417 15.6667V21.5417H15.6667C14.5896 21.5417 13.7083 22.423 13.7083 23.5001C13.7083 24.5772 14.5896 25.4584 15.6667 25.4584H21.5417V31.3334C21.5417 32.4105 22.4229 33.2917 23.5 33.2917C24.5771 33.2917 25.4583 32.4105 25.4583 31.3334V25.4584H31.3333C32.4104 25.4584 33.2917 24.5772 33.2917 23.5001C33.2917 22.423 32.4104 21.5417 31.3333 21.5417H25.4583V15.6667C25.4583 14.5897 24.5771 13.7084 23.5 13.7084ZM23.5 3.91675C12.69 3.91675 3.91666 12.6901 3.91666 23.5001C3.91666 34.3101 12.69 43.0834 23.5 43.0834C34.31 43.0834 43.0833 34.3101 43.0833 23.5001C43.0833 12.6901 34.31 3.91675 23.5 3.91675ZM23.5 39.1667C14.8637 39.1667 7.83332 32.1363 7.83332 23.5001C7.83332 14.8638 14.8637 7.83341 23.5 7.83341C32.1362 7.83341 39.1667 14.8638 39.1667 23.5001C39.1667 32.1363 32.1362 39.1667 23.5 39.1667Z" fill="white"/>
</svg>
