<svg width="50" height="50" viewBox="0 0 50 50" fill="none" xmlns="http://www.w3.org/2000/svg">
<path d="M29.6667 23.8333C31.6034 23.8333 33.155 22.2699 33.155 20.3333C33.155 18.3966 31.6034 16.8333 29.6667 16.8333C27.73 16.8333 26.1667 18.3966 26.1667 20.3333C26.1667 22.2699 27.73 23.8333 29.6667 23.8333ZM20.3334 23.8333C22.27 23.8333 23.8217 22.2699 23.8217 20.3333C23.8217 18.3966 22.27 16.8333 20.3334 16.8333C18.3967 16.8333 16.8334 18.3966 16.8334 20.3333C16.8334 22.2699 18.3967 23.8333 20.3334 23.8333ZM20.3334 26.1666C17.615 26.1666 12.1667 27.5316 12.1667 30.2499V31.9999C12.1667 32.6416 12.6917 33.1666 13.3334 33.1666H27.3334C27.975 33.1666 28.5 32.6416 28.5 31.9999V30.2499C28.5 27.5316 23.0517 26.1666 20.3334 26.1666ZM29.6667 26.1666C29.3284 26.1666 28.9434 26.1899 28.535 26.2249C28.5584 26.2366 28.57 26.2599 28.5817 26.2716C29.9117 27.2399 30.8334 28.5349 30.8334 30.2499V31.9999C30.8334 32.4083 30.7517 32.8049 30.6234 33.1666H36.6667C37.3084 33.1666 37.8334 32.6416 37.8334 31.9999V30.2499C37.8334 27.5316 32.385 26.1666 29.6667 26.1666Z" fill="#5E89C7"/>
<path d="M25 4.16675C13.5 4.16675 4.16669 13.5001 4.16669 25.0001C4.16669 36.5001 13.5 45.8334 25 45.8334C36.5 45.8334 45.8334 36.5001 45.8334 25.0001C45.8334 13.5001 36.5 4.16675 25 4.16675ZM8.33335 25.0001C8.33335 15.7917 15.7917 8.33342 25 8.33342C28.8542 8.33342 32.3959 9.64592 35.2084 11.8542L11.8542 35.2084C9.64585 32.3959 8.33335 28.8542 8.33335 25.0001ZM25 41.6668C21.1459 41.6668 17.6042 40.3542 14.7917 38.1459L38.1459 14.7917C40.3542 17.6042 41.6667 21.1459 41.6667 25.0001C41.6667 34.2084 34.2084 41.6668 25 41.6668Z" fill="#5E89C7"/>
</svg>
