<svg width="32" height="32" viewBox="0 0 32 32" fill="none" xmlns="http://www.w3.org/2000/svg">
<path d="M3.75 3.75H14.25C15.2125 3.75 16 2.9625 16 2C16 1.0375 15.2125 0.25 14.25 0.25H3.75C1.825 0.25 0.25 1.825 0.25 3.75V28.25C0.25 30.175 1.825 31.75 3.75 31.75H14.25C15.2125 31.75 16 30.9625 16 30C16 29.0375 15.2125 28.25 14.25 28.25H3.75V3.75Z" fill="white"/>
<path d="M31.1375 15.3876L26.255 10.5051C25.695 9.94505 24.75 10.3301 24.75 11.1176V14.2501H12.5C11.5375 14.2501 10.75 15.0376 10.75 16.0001C10.75 16.9626 11.5375 17.7501 12.5 17.7501H24.75V20.8826C24.75 21.6701 25.695 22.0551 26.2375 21.4951L31.12 16.6126C31.47 16.2801 31.47 15.7201 31.1375 15.3876Z" fill="white"/>
</svg>
