<svg width="42" height="42" viewBox="0 0 42 42" fill="none" xmlns="http://www.w3.org/2000/svg">
<path d="M8.75 8.75H19.25C20.2125 8.75 21 7.9625 21 7C21 6.0375 20.2125 5.25 19.25 5.25H8.75C6.825 5.25 5.25 6.825 5.25 8.75V33.25C5.25 35.175 6.825 36.75 8.75 36.75H19.25C20.2125 36.75 21 35.9625 21 35C21 34.0375 20.2125 33.25 19.25 33.25H8.75V8.75Z" fill="#FF8585"/>
<path d="M36.1375 20.3876L31.255 15.5051C30.695 14.9451 29.75 15.3301 29.75 16.1176V19.2501H17.5C16.5375 19.2501 15.75 20.0376 15.75 21.0001C15.75 21.9626 16.5375 22.7501 17.5 22.7501H29.75V25.8826C29.75 26.6701 30.695 27.0551 31.2375 26.4951L36.12 21.6126C36.47 21.2801 36.47 20.7201 36.1375 20.3876Z" fill="#FF8585"/>
</svg>
