<?xml version="1.0" encoding="iso-8859-1"?>
<!-- Generator: Adobe Illustrator 19.0.0, SVG Export Plug-In . SVG Version: 6.00 Build 0)  -->
<svg version="1.1" id="Capa_1" xmlns="http://www.w3.org/2000/svg" xmlns:xlink="http://www.w3.org/1999/xlink" x="0px" y="0px"
	 viewBox="0 0 472 472" style="enable-background:new 0 0 472 472;" xml:space="preserve">
<path style="fill:#FDB62F;" d="M32,8h192c17.673,0,32,14.327,32,32v400c0,17.673-14.327,32-32,32H32c-17.673,0-32-14.327-32-32V40
	C0,22.327,14.327,8,32,8z"/>
<path style="fill:#87CED9;" d="M40,48h176v112H40V48z"/>
<circle style="fill:#FA962A;" cx="128" cy="288" r="96"/>
<path style="fill:#FFA83D;" d="M246.968,273.032c8.657,65.314-37.273,125.279-102.588,133.936c-10.404,1.379-20.944,1.379-31.348,0
	L48,472h176c17.673,0,32-14.327,32-32c0,0,0,0,0,0V264L246.968,273.032z"/>
<path style="fill:#FDB62F;" d="M190.225,225.776L190.225,225.776c6.248,6.248,6.248,16.379,0,22.628L88.401,350.228
	c-6.248,6.248-16.379,6.248-22.628,0l0,0c-6.248-6.248-6.248-16.379,0-22.628l101.824-101.824
	C173.846,219.528,183.977,219.528,190.225,225.776z"/>
<g>
	<circle style="fill:#DE4C3C;" cx="40" cy="424" r="16"/>
	<circle style="fill:#DE4C3C;" cx="96" cy="424" r="16"/>
	<circle style="fill:#DE4C3C;" cx="152" cy="424" r="16"/>
	<circle style="fill:#DE4C3C;" cx="208" cy="424" r="16"/>
	<path style="fill:#DE4C3C;" d="M32,184h24v16H32V184z"/>
	<path style="fill:#DE4C3C;" d="M200,184h24v16h-24V184z"/>
</g>
<path style="fill:#87CED9;" d="M424,0h16v72h-16V0z"/>
<path style="fill:#2A7DB8;" d="M472,136h-24V96l-8-24h-16l-8,24v40h-24v16h24v200h32V152h24V136z"/>
<path style="fill:#87CED9;" d="M328,0h16v72h-16V0z"/>
<g>
	<path style="fill:#DE4C3C;" d="M376,136h-24V96l-8-24h-16l-8,24v40h-24v16h24v200h32V152h24V136z"/>
	<path style="fill:#DE4C3C;" d="M320,416h-40v-16h40c4.418,0,8-3.582,8-8v-40h16v40C344,405.255,333.255,416,320,416z"/>
</g>
<path style="fill:#2A7DB8;" d="M408,448H280v-16h128c8.837,0,16-7.163,16-16v-64h16v64C440,433.673,425.673,448,408,448z"/>
<path style="fill:#71C4D1;" d="M80,160h136V48h-24L80,160z"/>
<g>
	<path style="fill:#59B3C2;" d="M176,120h16v16h-16V120z"/>
	<path style="fill:#59B3C2;" d="M144,120h16v16h-16V120z"/>
	<path style="fill:#59B3C2;" d="M112,120h16v16h-16V120z"/>
	<path style="fill:#59B3C2;" d="M80,120h16v16H80V120z"/>
</g>
<g>
</g>
<g>
</g>
<g>
</g>
<g>
</g>
<g>
</g>
<g>
</g>
<g>
</g>
<g>
</g>
<g>
</g>
<g>
</g>
<g>
</g>
<g>
</g>
<g>
</g>
<g>
</g>
<g>
</g>
</svg>
