<svg height="480pt" viewBox="0 -4 480 480" width="480pt" xmlns="http://www.w3.org/2000/svg"><path d="m40 0h400c17.671875 0 32 14.328125 32 32v192c0 17.671875-14.328125 32-32 32h-400c-17.671875 0-32-14.328125-32-32v-192c0-17.671875 14.328125-32 32-32zm0 0" fill="#d6d6d4"/><path d="m440 0h-54l-256 256h310c17.671875 0 32-14.328125 32-32v-192c0-17.671875-14.328125-32-32-32zm0 0" fill="#c7c7c5"/><path d="m48 32h192c4.417969 0 8 3.582031 8 8v144c0 4.417969-3.582031 8-8 8h-192c-4.417969 0-8-3.582031-8-8v-144c0-4.417969 3.582031-8 8-8zm0 0" fill="#5f9548"/><path d="m43.097656 32h201.804688c1.710937 0 3.097656 1.386719 3.097656 3.097656v17.804688c0 1.710937-1.386719 3.097656-3.097656 3.097656h-201.804688c-1.710937 0-3.097656-1.386719-3.097656-3.097656v-17.804688c0-1.710937 1.386719-3.097656 3.097656-3.097656zm0 0" fill="#568741"/><path d="m440 112c0 8.835938-7.164062 16-16 16s-16-7.164062-16-16 7.164062-16 16-16 16 7.164062 16 16zm0 0" fill="#ebebe9"/><path d="m376 112c0 8.835938-7.164062 16-16 16s-16-7.164062-16-16 7.164062-16 16-16 16 7.164062 16 16zm0 0" fill="#ebebe9"/><path d="m312 112c0 8.835938-7.164062 16-16 16s-16-7.164062-16-16 7.164062-16 16-16 16 7.164062 16 16zm0 0" fill="#ebebe9"/><path d="m440 176c0 8.835938-7.164062 16-16 16s-16-7.164062-16-16 7.164062-16 16-16 16 7.164062 16 16zm0 0" fill="#ebebe9"/><path d="m376 176c0 8.835938-7.164062 16-16 16s-16-7.164062-16-16 7.164062-16 16-16 16 7.164062 16 16zm0 0" fill="#ebebe9"/><path d="m312 176c0 8.835938-7.164062 16-16 16s-16-7.164062-16-16 7.164062-16 16-16 16 7.164062 16 16zm0 0" fill="#ebebe9"/><g fill="#a3a3a1"><path d="m32 216h32v16h-32zm0 0"/><path d="m80 216h32v16h-32zm0 0"/><path d="m128 216h32v16h-32zm0 0"/><path d="m176 216h32v16h-32zm0 0"/><path d="m224 216h32v16h-32zm0 0"/><path d="m352 216h16v16h-16zm0 0"/><path d="m416 216h16v16h-16zm0 0"/><path d="m40 256h48v32h-48zm0 0"/><path d="m392 256h48v32h-48zm0 0"/><path d="m280 56h32v16h-32zm0 0"/><path d="m344 56h32v16h-32zm0 0"/><path d="m408 56h32v16h-32zm0 0"/><path d="m280 24h32v16h-32zm0 0"/><path d="m344 24h32v16h-32zm0 0"/><path d="m408 24h32v16h-32zm0 0"/></g><path d="m64 104h160v16h-160zm0 0" fill="#43752e"/><path d="m176.6875 168h-.992188c-12.871093.066406-24.257812-8.332031-28-20.648438l-22.765624-74c-1.738282-5.648437-7.003907-9.464843-12.910157-9.355468-5.910156.109375-11.03125 4.117187-12.554687 9.828125l-10.777344 40.246093-15.457031-4.140624 10.785156-40.25c3.375-12.597657 14.679687-21.4375 27.714844-21.675782 13.039062-.238281 24.660156 8.179688 28.492187 20.644532l22.769532 74c1.695312 5.585937 6.867187 9.390624 12.703124 9.351562h.992188c5.707031.007812 10.769531-3.648438 12.558594-9.0625l11.203125-33.464844 15.199219 5.054688-11.214844 33.472656c-3.96875 11.953125-15.152344 20.011719-27.746094 20zm0 0" fill="#88c25e"/><path d="m64 416-17.457031 8h-46.542969v16h49.230469l14.769531 8h304v-32zm0 0" fill="#374559"/><path d="m112 392h16v80h-16zm0 0" fill="#3d4d63"/><path d="m144 392h16v80h-16zm0 0" fill="#3d4d63"/><path d="m136 368h-36l-36-23 36-25h36zm0 0" fill="#2e3e51"/><path d="m152 336h-16v-16h15.199219l39.199219-7.839844 3.136718 15.679688-40 8c-.503906.101562-1.019531.15625-1.535156.160156zm0 0" fill="#2e3e51"/><path d="m240 432h-40c-13.253906 0-24-10.746094-24-24s10.746094-24 24-24h16c4.417969 0 8-3.582031 8-8s-3.582031-8-8-8h-80v-16h80c13.253906 0 24 10.746094 24 24s-10.746094 24-24 24h-16c-4.417969 0-8 3.582031-8 8s3.582031 8 8 8h40zm0 0" fill="#2e3e51"/><path d="m296 240c-8.835938 0-16-7.164062-16-16s7.164062-16 16-16 16 7.164062 16 16-7.164062 16-16 16zm0-16" fill="#2e3e51"/><path d="m436 440h-68v-16h68c15.464844 0 28-12.535156 28-28s-12.535156-28-28-28h-104c-24.289062-.03125-43.96875-19.710938-44-44v-100h16v100c0 15.464844 12.535156 28 28 28h104c24.300781 0 44 19.699219 44 44s-19.699219 44-44 44zm0 0" fill="#2e3e51"/></svg>