<svg id="icons" enable-background="new 0 0 64 64" height="512" viewBox="0 0 64 64" width="512" xmlns="http://www.w3.org/2000/svg"><path d="m63 27.995c0 .55-.039 1-.086 1-.048 0-.537 0-1.087 0h-50.97c-.55 0-1.45 0-2 0h-6.857c-.55 0-1-.45-1-1v-2c0-.55.45-1 1-1h6.857 2 51.143c.55 0 1 .45 1 1z" fill="#656d78"/><path d="m55.99 28.995v4h-5.99v-3.92-.08-4h5.99z" fill="#ffce54"/><path d="m8 16.995h5.99v8h-5.99z" fill="#656d78"/><path d="m50 16.995h5.99v8h-5.99z" fill="#656d78"/><path d="m13.99 28.995v4h-5.99v-4-4h5.99z" fill="#ffce54"/><path d="m36.999 14.006h4.001v2.989h-4.001z" fill="#aab2bd"/><path d="m50 16.995v8h-36-.01v-8h9.01 3 12 3z" fill="#545c66"/><path d="m41 10.995v3.011h-3-12-3v-3.011c0-1.1.9-2 2-2h14c1.11 0 2 .901 2 2z" fill="#545c66"/><path d="m23 14.006h4.001v2.989h-4.001z" fill="#aab2bd"/><path d="m56 16.995c3.32 0 6 2.69 6 6v2h-6-.01v-8z" fill="#545c66"/><path d="m8 16.995v8h-6v-2c0-3.309 2.68-6 6-6z" fill="#545c66"/><path d="m8 32.995h5.99v22.01h-5.99z" fill="#656d78"/><path d="m50 32.995h5.99v22.01h-5.99z" fill="#656d78"/><path d="m14 28.995h36v.08 3.92 22.01h-36.01v-22.01-4zm26 13c0-4.42-3.58-8-8-8s-8 3.58-8 8 3.58 8 8 8 8-3.58 8-8z" fill="#545c66"/><circle cx="32" cy="41.995" fill="#ffce54" r="8"/><path d="m55.99 32.995v-4h6.01v20.002c0 3.32-2.68 6.008-6 6.008h-.01z" fill="#545c66"/><path d="m8 32.995v22.01c-3.32 0-6-2.689-6-6v-20.01h5.98.02z" fill="#545c66"/><g fill="#edab37"><path d="m12 29.996h-1.998c-.553 0-1-.447-1-1s.447-1 1-1h1.998c.553 0 1 .447 1 1s-.447 1-1 1z"/><path d="m53.999 29.996h-1.998c-.553 0-1-.447-1-1s.447-1 1-1h1.998c.553 0 1 .447 1 1s-.447 1-1 1z"/><path d="m30 43c-.209 0-.419-.065-.599-.2-.442-.331-.532-.958-.2-1.399l3-4c.332-.443.958-.531 1.399-.2.442.331.532.958.2 1.399l-3 4c-.196.262-.495.4-.8.4z"/><path d="m31.001 47c-.209 0-.419-.065-.599-.2-.442-.331-.532-.958-.2-1.399l3-4c.331-.442.958-.531 1.399-.2.442.331.532.958.2 1.399l-3 4c-.196.262-.495.4-.8.4z"/><path d="m34.001 43h-4c-.553 0-1-.447-1-1s.447-1 1-1h4c.553 0 1 .447 1 1s-.447 1-1 1z"/></g><path d="m41.986 22h-20.004c-.553 0-1-.447-1-1s.447-1 1-1h20.004c.553 0 1 .447 1 1s-.447 1-1 1z" fill="#434a54"/></svg>